# xmcd CD database file
#
# Track frame offsets:
#	150
#	16087
#	32054
#	59339
#	74548
#
# Disc length: 1446 seconds
#
# Revision: 0
# Processed by: cddbd v1.5.1PL0 Copyright (c) Steve Scherf et al.
# Submitted via: CDex 1.51
#
DISCID=3c05a405
DTITLE=Synth1 Project - S1
DYEAR=1900
DGENRE=テクノ (一般)
TTITLE0=Zets - Effe
TTITLE1=Monotone - S.Shin
TTITLE2=One - Wahiko
TTITLE3=Yellow Night Game - Yukke
TTITLE4=Revelation - Only
EXTD=
EXTT0=
EXTT1=
EXTT2=
EXTT3=
EXTT4=
PLAYORDER=
